<svg width="25" height="25" fill="none" xmlns="http://www.w3.org/2000/svg"><path d="M24.839 8.49a.548.548 0 00-.463-.157h-6.632V5.346C17.744 2.393 15.396 0 12.5 0S7.256 2.393 7.256 5.346v2.987H.624c-.185 0-.37 0-.463.158a.541.541 0 00-.154.471L2.32 21.855C2.644 23.654 4.167 24.97 5.96 25h13.08c1.798-.045 3.318-1.372 3.64-3.176l2.313-12.862a.54.54 0 00-.154-.471zM8.489 5.347c0-2.258 1.796-4.088 4.011-4.088s4.01 1.83 4.01 4.088v2.987H8.49V5.346zm12.957 16.32c-.208 1.192-1.219 2.064-2.406 2.076H5.96c-1.187-.012-2.198-.884-2.406-2.075L1.364 9.59h22.272l-2.19 12.076z" fill="#fff"/><path d="M17.127 15.723c.34 0 .617-.281.617-.629v-1.886a.623.623 0 00-.617-.63.623.623 0 00-.617.63v1.886c0 .348.276.63.617.63zm-9.254 0c.34 0 .617-.281.617-.629v-1.886a.623.623 0 00-.617-.63.623.623 0 00-.617.63v1.886c0 .348.276.63.617.63z" fill="#fff"/></svg>