<svg width="30" height="31" fill="none" xmlns="http://www.w3.org/2000/svg"><path d="M3.631 12.399h0a.583.583 0 01.175-.521.41.41 0 01.256-.163c.09-.02.19-.02.274-.02h6.18v-2.51c0-2.684 2.294-4.847 5.11-4.847 2.814 0 5.108 2.163 5.108 4.846v2.51H26.9a.678.678 0 01.533.173s0 0 0 0l-.086.094a.457.457 0 01.147.416L3.63 12.4zm0 0v.002L5.83 23.784h0c.319 1.651 1.821 2.852 3.58 2.88v0h12.428v0h.003c1.763-.042 3.262-1.252 3.58-2.908L3.63 12.4zM24 23.569h0c-.186.989-1.09 1.72-2.162 1.73H9.413c-1.072-.01-1.976-.741-2.161-1.73h0L5.2 13.059h20.85l-2.051 10.51zM11.943 9.184c0-1.916 1.642-3.482 3.682-3.482s3.683 1.566 3.683 3.482v2.51h-7.365v-2.51z" fill="#fff" stroke="#fff" stroke-width=".254"/><path d="M20.02 18.474c.388 0 .714-.3.714-.683v-1.665c0-.384-.326-.683-.713-.683-.387 0-.713.3-.713.683v1.665s0 0 0 0c0 .384.326.683.713.683zm-8.79 0c.387 0 .713-.3.713-.683v-1.665c0-.384-.326-.683-.713-.683-.388 0-.714.3-.714.683v1.665c0 .383.326.683.714.683z" fill="#fff" stroke="#fff" stroke-width=".254"/></svg>