<svg width="18" height="18" fill="none" xmlns="http://www.w3.org/2000/svg"><path d="M9.275 2.426c2.295 0 2.555 0 3.421.043.823.044 1.3.174 1.602.304.39.173.693.346.996.65.303.302.477.562.65.995.13.303.26.736.303 1.602.043.91.043 1.17.043 3.421 0 2.295 0 2.555-.043 3.421-.043.823-.173 1.3-.303 1.603-.173.39-.347.693-.65.996a2.655 2.655 0 01-.996.65c-.303.13-.736.26-1.602.302-.91.044-1.17.044-3.42.044-2.296 0-2.556 0-3.422-.044-.823-.043-1.3-.173-1.602-.303-.39-.173-.693-.346-.996-.65a2.653 2.653 0 01-.65-.995c-.13-.303-.26-.736-.303-1.602-.043-.91-.043-1.17-.043-3.422 0-2.295 0-2.555.043-3.42.043-.823.173-1.3.303-1.603.173-.39.347-.693.65-.996.303-.303.563-.476.996-.65.303-.13.736-.26 1.602-.303.91-.043 1.17-.043 3.421-.043zm0-1.559c-2.295 0-2.598 0-3.508.043-.909.044-1.515.174-2.078.39-.563.217-1.04.52-1.516.996-.476.477-.78.953-.996 1.516-.216.563-.346 1.17-.39 2.078C.744 6.8.744 7.103.744 9.398s0 2.598.043 3.508c.044.91.174 1.515.39 2.078.217.563.52 1.04.996 1.516.477.476.953.78 1.516.996.563.216 1.169.346 2.078.39.91.043 1.213.043 3.508.043s2.598 0 3.508-.043c.91-.044 1.515-.174 2.078-.39a4.188 4.188 0 001.516-.996 4.19 4.19 0 00.996-1.516c.216-.563.346-1.169.39-2.078.043-.91.043-1.213.043-3.508s0-2.598-.043-3.508c-.044-.909-.174-1.515-.39-2.078a4.19 4.19 0 00-.996-1.516 4.189 4.189 0 00-1.516-.996c-.563-.216-1.169-.346-2.078-.39-.866-.043-1.17-.043-3.508-.043z" fill="#AD2131"/><path d="M9.275 5.024a4.362 4.362 0 00-4.374 4.374 4.362 4.362 0 004.374 4.374 4.362 4.362 0 004.374-4.374 4.362 4.362 0 00-4.374-4.374zm0 7.189a2.855 2.855 0 01-2.858-2.858 2.855 2.855 0 012.858-2.858 2.855 2.855 0 012.858 2.858 2.828 2.828 0 01-2.858 2.858zm5.586-7.362c0 .563-.476 1.04-1.039 1.04s-1.04-.477-1.04-1.04c0-.563.477-1.04 1.04-1.04.563 0 1.04.477 1.04 1.04z" fill="#AD2131"/></svg>