<svg width="21" height="13" fill="none" xmlns="http://www.w3.org/2000/svg"><path fill-rule="evenodd" clip-rule="evenodd" d="M18.252 0H1.759A1.76 1.76 0 000 1.758v9.258a1.756 1.756 0 00.749 1.438l.005.003c.285.2.631.316 1.005.316h16.493c.373 0 .72-.117 1.005-.316l.005-.004a1.756 1.756 0 00.748-1.438V1.759A1.76 1.76 0 0018.252 0zM1.172 1.758v9.258a.58.58 0 00.015.126l6.03-4.801-6.034-4.69a.587.587 0 00-.01.107zm7.75 5.912l-.753-.588-5.677 4.52h15.027l-5.677-4.52-.753.588a1.756 1.756 0 01-2.167 0zm9.906-6.02l-6.035 4.69 6.03 4.802a.582.582 0 00.015-.126V1.758a.585.585 0 00-.01-.108zm-16.35-.478l6.047 4.7 1.119.875c.213.167.51.167.722 0l1.118-.873 6.05-4.702H2.476z" fill="#333"/></svg>