<svg width="91" height="57" fill="none" xmlns="http://www.w3.org/2000/svg"><g clip-path="url(#clip0_8188_331)"><path fill-rule="evenodd" clip-rule="evenodd" d="M61.237 18.53c1.181-.399 2.362-.155 2.593.548.23.703-.55 1.602-1.772 2.001-1.222.4-2.362.161-2.592-.542-.23-.703.55-1.602 1.771-2.007zm6.018-1.793c1.181-.399 2.362-.155 2.587.548.224.703-.55 1.596-1.772 2.002-1.222.405-2.362.154-2.592-.549-.23-.702.555-1.596 1.771-2m3.111 2.358c1.182-.405 2.363-.161 2.593.542.23.703-.555 1.602-1.771 2.001-1.217.4-2.362.16-2.587-.542-.224-.703.55-1.602 1.772-2.001m-2.598 3.734c1.18-.405 2.362-.16 2.586.542.225.703-.549 1.603-1.771 2.002-1.223.399-2.362.16-2.593-.542-.23-.703.555-1.603 1.772-2.002m-5.935 1.746c1.181-.405 2.362-.161 2.587.541.224.703-.55 1.603-1.772 2.002-1.222.399-2.362.16-2.592-.542-.23-.703.555-1.603 1.771-2.002m-3.201-2.382c1.181-.4 2.362-.155 2.587.548.224.703-.55 1.596-1.772 2.001-1.222.405-2.362.155-2.592-.548-.23-.703.555-1.596 1.771-2.001" fill="#E3051E"/><path fill-rule="evenodd" clip-rule="evenodd" d="M35.485 3.574C61.946-4.05 86.565.954 90.475 14.73c3.909 13.776-14.38 31.133-40.841 38.715-17.716 5.098-34.635 4.532-45.04-.542 11.604 3.05 28.098 2.692 42.235-1.376 23.385-6.736 39.565-22.08 36.093-34.278-1.536-5.42-6.679-9.309-13.972-11.364-16.269-4.58-36.123-1.155-52.557 5.557l-.13.054a89.863 89.863 0 0119.222-7.922z" fill="#E3051E"/><path d="M65.194 34.543c-.29 1.525-1.417 2.978-2.598 2.978-1.181 0-1.494-1.024-1.494-1.888 0-1.947 1.352-3.996 3.295-3.996.442-.006.881.084 1.287.262l-.49 2.644zm-5.858 6.921a4.56 4.56 0 002.362.554 4.11 4.11 0 002.67-.893c.814-.703 1.251-1.852 1.57-3.514l1.181-6.498a6.314 6.314 0 00-2.492-.554c-3.006 0-4.954 2.65-4.937 5.313 0 1.4.803 2.733 2.362 2.733a3.093 3.093 0 001.601-.456 3.129 3.129 0 001.14-1.223h.047l-.26 1.191c-.467 2.132-1.494 2.811-2.8 2.811a4.105 4.105 0 01-2.054-.518l-.39 1.054zm-6.945-2.859l.71-3.817c.353-1.954 1.706-3.11 2.65-3.11.945 0 1.223.596 1.223 1.382a5.099 5.099 0 01-.112 1.007l-.85 4.538h1.334l.868-4.586a8.1 8.1 0 00.142-1.262c0-1.656-1.046-2.192-1.979-2.192a3.386 3.386 0 00-1.66.477c-.504.3-.922.727-1.215 1.238l.189-1.543H52.51c-.1.65-.195 1.412-.372 2.294l-1.046 5.574h1.3zm-2.51-9.214a.877.877 0 00.645-.261.893.893 0 00.26-.65.786.786 0 00-.475-.786.88.88 0 00-.946.21.894.894 0 00-.251.642.78.78 0 00.457.78.76.76 0 00.31.065zm-1.18 9.214l1.494-7.868h-1.323l-1.5 7.868h1.329zm-4.252-3.883c-.337 1.787-1.577 2.978-2.604 2.978-1.146 0-1.465-.989-1.465-1.93 0-2.096 1.447-4.098 3.313-4.098a2.43 2.43 0 011.287.322l-.531 2.728zm1.429-7.66l-.691 3.77a3.519 3.519 0 00-1.382-.273c-2.752 0-4.807 2.567-4.807 5.36 0 1.608.821 2.86 2.333 2.86a3.3 3.3 0 001.625-.498c.49-.305.892-.733 1.168-1.242h.035l-.212 1.56h1.222c.063-.836.177-1.667.343-2.49l1.73-9.047h-1.364zm-9.265 11.543l2.19-11.542H37.44l-2.173 11.542h1.347zm-5.48-6.974c1.4 0 1.818 1.286 1.818 2.198 0 1.834-1.18 3.883-2.77 3.883-1.139 0-1.83-.93-1.83-2.21-.006-1.804 1.11-3.871 2.782-3.871zm.147-1.072c-2.527 0-4.31 2.382-4.31 4.991 0 1.787 1.092 3.234 3.035 3.234 2.61 0 4.31-2.52 4.31-4.943 0-1.68-.933-3.282-3.017-3.282h-.018zm-12.383-2.907l-2.079 10.953h1.335l.968-5.152h4.984l-.962 5.152h1.334l2.097-10.953h-1.376l-.868 4.616h-4.984l.885-4.616h-1.334zm-7.305 1.12c.37-.086.749-.124 1.128-.113 1.222 0 2.09.518 2.09 1.691 0 1.317-1.092 2.436-2.781 2.436h-1.181l.744-4.014zm-3.183 9.833h1.335l.886-4.764h1.18c1.075 0 1.624.63 1.701 2.126.041.887.128 1.772.26 2.65h1.382a18.246 18.246 0 01-.337-2.978c-.082-1.137-.449-1.947-1.18-2.21v-.035a3.362 3.362 0 001.814-1.149 3.412 3.412 0 00.76-2.02 2.399 2.399 0 00-.803-1.787 3.81 3.81 0 00-2.593-.798c-.793 0-1.585.082-2.362.244L8.41 38.605zm-5.226-9.833c.37-.086.749-.124 1.128-.113 1.222 0 2.09.518 2.09 1.691 0 1.317-1.092 2.436-2.781 2.436H2.439l.744-4.014zM0 38.605h1.335l.885-4.764h1.181c1.081 0 1.624.63 1.707 2.126.04.887.128 1.772.26 2.65H6.75a18.249 18.249 0 01-.337-2.978c-.083-1.137-.455-1.947-1.18-2.21v-.035a3.368 3.368 0 001.813-1.15c.464-.571.731-1.28.76-2.019a2.4 2.4 0 00-.802-1.787 3.81 3.81 0 00-2.593-.798c-.793 0-1.585.082-2.362.244L0 38.605z" fill="#333"/></g><defs><clipPath id="clip0_8188_331"><path fill="#fff" d="M0 0h91v57H0z"/></clipPath></defs></svg>