<svg width="21" height="20" fill="none" xmlns="http://www.w3.org/2000/svg"><path d="M17.71 20a2.36 2.36 0 002.353-2.362v-3.15a.787.787 0 00-.538-.747l-4.716-1.574a.788.788 0 00-.686.091l-2.006 1.336c-2.152-1.02-4.696-3.54-5.708-5.653l1.337-2.004a.787.787 0 00.092-.686L6.262.538A.788.788 0 005.515 0H2.363A2.36 2.36 0 000 2.351c0 4.35 1.98 8.816 5.43 12.25C8.877 18.032 13.353 20 17.71 20zM2.364 1.575h2.584l1.274 3.81L4.86 7.426a.787.787 0 00-.076.73c.524 1.308 1.573 2.78 2.952 4.145 1.371 1.355 2.851 2.392 4.168 2.918a.787.787 0 00.73-.076l2.043-1.36 3.811 1.272v2.583a.774.774 0 01-.776.787c-8.294 0-16.135-7.812-16.135-16.074 0-.435.346-.776.787-.776z" fill="#333"/></svg>