<svg width="30" height="31" fill="none" xmlns="http://www.w3.org/2000/svg"><g clip-path="url(#clip0_8084_3723)"><path d="M27.342 26.006l-6.786-6.786a9.484 9.484 0 002.126-5.988c0-5.256-4.277-9.533-9.533-9.533-5.256 0-9.533 4.277-9.533 9.533 0 5.256 4.277 9.533 9.533 9.533 2.268 0 4.35-.799 5.988-2.126l6.815 6.815c.209.18.85.58 1.43 0 .501-.502.143-1.265-.04-1.448zM13.15 20.758c-4.15 0-7.526-3.376-7.526-7.526S9 5.706 13.15 5.706s7.526 3.376 7.526 7.526-3.376 7.526-7.526 7.526z" fill="#fff"/></g><defs><clipPath id="clip0_8084_3723"><path fill="#fff" transform="translate(0 .5)" d="M0 0h30v30H0z"/></clipPath></defs></svg>