<svg width="20" height="20" fill="none" xmlns="http://www.w3.org/2000/svg"><g clip-path="url(#clip0_205_165)"><path d="M17.07 2.928A9.933 9.933 0 0010.027 0C4.514-.022 0 4.443 0 10a9.993 9.993 0 009.999 9.998 9.937 9.937 0 007.07-2.928 9.994 9.994 0 000-14.14zm-6.485 15.376v-3.582a8.79 8.79 0 012.631.585 10.976 10.976 0 01-2.631 2.997zm0-4.755v-2.964h4.105a10.342 10.342 0 01-.926 3.678 9.96 9.96 0 00-3.18-.714zm0-4.136V6.449a9.959 9.959 0 003.179-.715c.53 1.16.85 2.407.926 3.679h-4.105zm0-4.138V1.693a10.976 10.976 0 012.631 2.997 8.79 8.79 0 01-2.631.585zm1.473-3.86a8.806 8.806 0 013.607 1.82 8.817 8.817 0 01-1.386.955 12.163 12.163 0 00-2.22-2.775zm-2.645.34v3.52a8.792 8.792 0 01-2.568-.56 10.978 10.978 0 012.568-2.96zM5.778 4.223a8.822 8.822 0 01-1.445-.986A8.805 8.805 0 018.044 1.39a12.162 12.162 0 00-2.266 2.832zM9.413 6.45v2.964H5.386c.075-1.262.392-2.5.914-3.652a9.96 9.96 0 003.113.688zm0 4.136v2.963a9.958 9.958 0 00-3.113.689 10.337 10.337 0 01-.914-3.652h4.027zm0 4.137v3.52a10.976 10.976 0 01-2.568-2.96 8.792 8.792 0 012.568-.56zm-1.369 3.885a8.805 8.805 0 01-3.711-1.845 8.818 8.818 0 011.445-.987 12.163 12.163 0 002.266 2.832zm6.235-2.8c.488.271.952.59 1.386.955a8.806 8.806 0 01-3.606 1.82 12.167 12.167 0 002.22-2.775zm.541-1.04a11.506 11.506 0 001.044-4.182h2.942a8.794 8.794 0 01-2.291 5.362 10.004 10.004 0 00-1.695-1.18zm3.986-5.354h-2.942A11.506 11.506 0 0014.82 5.23a9.88 9.88 0 001.695-1.18 8.794 8.794 0 012.291 5.363zM3.483 4.05c.546.47 1.135.876 1.758 1.214a11.504 11.504 0 00-1.028 4.149H1.192a8.794 8.794 0 012.29-5.363zm-2.291 6.535h3.02a11.504 11.504 0 001.029 4.148 10 10 0 00-1.758 1.214 8.794 8.794 0 01-2.291-5.362z" fill="#333"/></g><defs><clipPath id="clip0_205_165"><path fill="#fff" d="M0 0h20v20H0z"/></clipPath></defs></svg>