<svg width="19" height="16" fill="none" xmlns="http://www.w3.org/2000/svg"><path d="M.053 13.735a11.182 11.182 0 005.838 1.651c7.102 0 11.091-5.802 10.848-10.992.73-.518 1.41-1.179 1.897-1.934a8.268 8.268 0 01-2.189.566c.779-.471 1.41-1.179 1.654-2.028a7.145 7.145 0 01-2.432.896 3.916 3.916 0 00-2.773-1.18c-2.481 0-4.281 2.218-3.697 4.53a10.89 10.89 0 01-7.881-3.869C.296 3.026.782 5.196 2.485 6.33c-.632 0-1.216-.19-1.751-.472C.685 7.556 1.95 9.16 3.799 9.538c-.535.141-1.12.188-1.703.047a3.757 3.757 0 003.551 2.547c-1.556 1.274-3.551 1.84-5.594 1.604z" fill="#29A9E1"/></svg>