<svg width="23" height="14" fill="none" xmlns="http://www.w3.org/2000/svg"><path fill-rule="evenodd" clip-rule="evenodd" d="M22.705 1.685c-.283-.2-1.376-.2-2.43-.2-1.092.04-2.186.04-2.428.12-.244.08-.77 1.313-1.418 2.625-.769 1.433-1.74 2.825-2.308 2.825-.769 0-.607-2.347-.526-4.137 0-1.154-.162-1.512-.364-1.631-.405-.279-1.539-.557-1.539-.557S8.291.49 7.805 1.923c.648.08 1.782-.12 1.336 4.336-.04.2-.526 2.069-2.105-.437-.405-.637-1.903-4.336-2.43-4.376-1.74-.04-3.482-.12-4.09.199-.566.318.77 2.864 2.997 6.285 1.822 2.825 3.725 5.012 7.045 5.53.648.08 2.268.119 2.794-.12.324-.159-.08-2.585 1.093-2.824.527-.08 2.551 2.546 3.32 2.824.486.2 1.499.279 2.551.2 1.134-.04 2.43.119 2.551-.637.284-1.671-3.441-3.86-3.522-4.893-.081-.756 1.336-2.109 2.105-3.143.81-1.154 1.822-2.705 1.255-3.182z" fill="#4A76A8"/></svg>