<svg width="30" height="31" viewBox="0 0 30 31" fill="none" xmlns="http://www.w3.org/2000/svg">
<path d="M3.63135 12.3988L3.63137 12.3988C3.59826 12.2067 3.66464 12.0133 3.80556 11.878C3.87277 11.7817 3.96849 11.7364 4.06197 11.7153C4.15286 11.6948 4.25284 11.6948 4.33588 11.6949L4.34268 11.6949H10.5163V9.18446C10.5163 6.50131 12.8101 4.33778 15.6251 4.33778C18.4401 4.33778 20.734 6.50131 20.734 9.18446V11.6949H26.8999C27.0945 11.6726 27.2908 11.735 27.4331 11.8672C27.4333 11.8674 27.4335 11.8676 27.4336 11.8677L27.3471 11.9607C27.4652 12.0683 27.52 12.224 27.4936 12.3772L3.63135 12.3988ZM3.63135 12.3988L3.63183 12.4013L5.82972 23.7839L5.82972 23.7839C6.14905 25.4353 7.65132 26.6357 9.41047 26.6631V26.6631H9.41245H21.8377V26.6632L21.8407 26.6631C23.6044 26.622 25.103 25.4124 25.4204 23.7562L3.63135 12.3988ZM23.9988 23.5689L23.9986 23.5698C23.8133 24.5576 22.909 25.2885 21.8372 25.2985H9.41299C8.34118 25.2885 7.43685 24.5576 7.25156 23.5698L7.25138 23.5689L5.20027 13.0595H26.0499L23.9988 23.5689ZM11.9425 9.18446C11.9425 7.26776 13.5847 5.70241 15.6251 5.70241C17.6655 5.70241 19.3076 7.26776 19.3076 9.18446V11.6949H11.9425V9.18446Z" fill="white" stroke="white" stroke-width="0.254121"/>
<path d="M20.0209 18.4736C20.4082 18.4736 20.734 18.1745 20.734 17.7913V16.1256C20.734 15.7423 20.4082 15.4433 20.0209 15.4433C19.6335 15.4433 19.3077 15.7423 19.3077 16.1256V17.7913C19.3077 17.7913 19.3077 17.7913 19.3077 17.7913C19.3076 18.1746 19.6336 18.4736 20.0209 18.4736Z" fill="white" stroke="white" stroke-width="0.254121"/>
<path d="M11.2296 18.4736C11.6169 18.4736 11.9428 18.1745 11.9428 17.7913V16.1256C11.9428 15.7423 11.6169 15.4433 11.2296 15.4433C10.8423 15.4433 10.5164 15.7423 10.5164 16.1256V17.7913C10.5164 18.1745 10.8423 18.4736 11.2296 18.4736Z" fill="white" stroke="white" stroke-width="0.254121"/>
</svg>
